<svg version="1.1" xmlns="http://www.w3.org/2000/svg" viewBox="0 0 4678.057993332027 2642.7492879231795" width="4678.057993332027" height="2642.7492879231795">
  <!-- svg-source:excalidraw -->
  
  <defs>
    <style class="style-fonts">
      @font-face {
        font-family: "Virgil";
        src: url("https://excalidraw.com/Virgil.woff2");
      }
      @font-face {
        font-family: "Cascadia";
        src: url("https://excalidraw.com/Cascadia.woff2");
      }
    </style>
    
  </defs>
  <rect x="0" y="0" width="4678.057993332027" height="2642.7492879231795" fill="#ffffff"></rect><g stroke-linecap="round" transform="translate(10 805.0000000000009) rotate(0 373.0942446873127 206.3746439615884)"><path d="M103.19 0 C225.72 -1.28, 348.13 -0.22, 643 0 M103.19 0 C266.49 0.62, 429.97 0.31, 643 0 M643 0 C713.15 1.46, 744.98 35.65, 746.19 103.19 M643 0 C709.99 1.23, 744.18 35.71, 746.19 103.19 M746.19 103.19 C746.33 169.04, 746.65 231.46, 746.19 309.56 M746.19 103.19 C744.4 167.63, 745.44 231.4, 746.19 309.56 M746.19 309.56 C745.25 379.34, 710.65 410.83, 643 412.75 M746.19 309.56 C746.47 380.38, 711.17 415, 643 412.75 M643 412.75 C472.46 411.07, 301.69 412.36, 103.19 412.75 M643 412.75 C519.24 411.67, 395.7 411.37, 103.19 412.75 M103.19 412.75 C36.12 412.11, 1.37 379.24, 0 309.56 M103.19 412.75 C35.33 412.03, -0.29 378.67, 0 309.56 M0 309.56 C-2.43 259.47, -2.64 205.3, 0 103.19 M0 309.56 C-0.53 255.32, 0.87 200.18, 0 103.19 M0 103.19 C1.62 34.45, 35.51 0.82, 103.19 0 M0 103.19 C0.61 32.89, 32.31 -1.8, 103.19 0" stroke="#000000" stroke-width="1" fill="none"></path></g><g stroke-linecap="round"><g transform="translate(16.69984099637759 911.5094648711083) rotate(0 372.0662576038489 -2.2946464331730567)"><path d="M-0.11 -0.11 C123.92 -0.9, 620.22 -3.98, 744.25 -4.76 M0.11 0.17 C124.13 -0.59, 620.13 -3.75, 744.17 -4.56" stroke="#000000" stroke-width="1" fill="none"></path></g></g><mask></mask><g transform="translate(295.5836669734822 829.7079772949228) rotate(0 69.65998444733867 35.833333333333485)"><text x="69.65998444733867" y="0" font-family="Virgil, Segoe UI Emoji" font-size="57.333333333333925px" fill="#1e1e1e" text-anchor="middle" style="white-space: pre;" direction="ltr" dominant-baseline="text-before-edge">Nota</text></g><g stroke-linecap="round" transform="translate(1123.850569554694 766.6666666666688) rotate(0 373.0942446873127 206.3746439615884)"><path d="M103.19 0 C273.68 1.35, 442.83 2.65, 643 0 M103.19 0 C279.53 2.12, 455.95 2, 643 0 M643 0 C712.14 -1.43, 746.79 35.66, 746.19 103.19 M643 0 C712.56 0.17, 747.61 34.67, 746.19 103.19 M746.19 103.19 C746.25 164.19, 747.93 228.77, 746.19 309.56 M746.19 103.19 C745.2 178.79, 745.86 255.38, 746.19 309.56 M746.19 309.56 C745.98 380.3, 710.37 414.45, 643 412.75 M746.19 309.56 C747.85 380.44, 709.92 415.02, 643 412.75 M643 412.75 C484.12 414.85, 324.46 414.47, 103.19 412.75 M643 412.75 C522.48 413, 402.02 412.42, 103.19 412.75 M103.19 412.75 C33.19 410.97, 0.55 377.05, 0 309.56 M103.19 412.75 C32.69 411.03, 1.27 380.49, 0 309.56 M0 309.56 C-1.46 258.47, -1.2 208.7, 0 103.19 M0 309.56 C0.25 261.49, -0.25 213.6, 0 103.19 M0 103.19 C1.29 36.09, 34.38 -0.75, 103.19 0 M0 103.19 C2.21 34.23, 35.71 0.07, 103.19 0" stroke="#000000" stroke-width="1" fill="none"></path></g><g stroke-linecap="round"><g transform="translate(1130.5504105510715 873.1761315377744) rotate(0 372.07213904534484 -2.4223567137651116)"><path d="M-0.13 -0.14 C123.94 -0.94, 620.25 -3.92, 744.28 -4.72 M0.09 0.13 C124.16 -0.72, 620.17 -4.15, 744.22 -4.97" stroke="#000000" stroke-width="1" fill="none"></path></g></g><mask></mask><g transform="translate(1341.6455820594992 791.3746439615907) rotate(0 137.44863891601562 35.833333333333485)"><text x="137.44863891601562" y="0" font-family="Virgil, Segoe UI Emoji" font-size="57.333333333333925px" fill="#1e1e1e" text-anchor="middle" style="white-space: pre;" direction="ltr" dominant-baseline="text-before-edge">Asignacion</text></g><g stroke-linecap="round" transform="translate(2610.5026912680605 610) rotate(0 373.09424468731265 206.3746439615884)"><path d="M103.19 0 C217.54 0.06, 333.53 0.38, 643 0 M103.19 0 C236.35 -0.09, 369.08 -0.33, 643 0 M643 0 C711.77 -0.35, 745.33 34.21, 746.19 103.19 M643 0 C710.4 -0.4, 746.51 34.65, 746.19 103.19 M746.19 103.19 C747.25 165.62, 746.68 226.7, 746.19 309.56 M746.19 103.19 C744.97 177.08, 744.17 252.91, 746.19 309.56 M746.19 309.56 C744.41 376.57, 712.17 411.45, 643 412.75 M746.19 309.56 C747 376.94, 714.06 413.48, 643 412.75 M643 412.75 C445.8 410.53, 248.54 410.8, 103.19 412.75 M643 412.75 C513.79 413.96, 384.13 413.62, 103.19 412.75 M103.19 412.75 C33.12 411.85, -1.71 379.75, 0 309.56 M103.19 412.75 C34.52 414.66, 0.17 378.83, 0 309.56 M0 309.56 C-0.68 264.89, -1.71 224.81, 0 103.19 M0 309.56 C-0.33 243.63, 0.37 177.88, 0 103.19 M0 103.19 C0.13 32.48, 35.8 -1.9, 103.19 0 M0 103.19 C-0.77 34.36, 35.41 2.02, 103.19 0" stroke="#000000" stroke-width="1" fill="none"></path></g><g stroke-linecap="round"><g transform="translate(2617.2025322644377 716.5094648711056) rotate(0 372.09085967000794 -2.4179915693871408)"><path d="M0.06 0.01 C124.11 -0.77, 620.28 -4.05, 744.28 -4.85 M-0.09 -0.12 C123.94 -0.87, 620.21 -3.94, 744.22 -4.69" stroke="#000000" stroke-width="1" fill="none"></path></g></g><mask></mask><g transform="translate(2810.9267168343886 634.7079772949219) rotate(0 154.8196258544922 35.833333333333485)"><text x="154.8196258544922" y="0" font-family="Virgil, Segoe UI Emoji" font-size="57.333333333333925px" fill="#1e1e1e" text-anchor="middle" style="white-space: pre;" direction="ltr" dominant-baseline="text-before-edge">Habilitacion</text></g><g stroke-linecap="round" transform="translate(2617.1690974200556 10) rotate(0 373.09424468731265 206.3746439615884)"><path d="M103.19 0 C269.83 -2.41, 437.01 -1.92, 643 0 M103.19 0 C252.01 -0.99, 400.67 -0.94, 643 0 M643 0 C713.59 1.41, 747.86 35.09, 746.19 103.19 M643 0 C710.29 1.64, 747.35 34.54, 746.19 103.19 M746.19 103.19 C745.24 157.15, 745.51 215.52, 746.19 309.56 M746.19 103.19 C748.07 166.45, 748.36 229.53, 746.19 309.56 M746.19 309.56 C746.09 377.35, 712.47 414.53, 643 412.75 M746.19 309.56 C747.11 378.27, 712.77 413.3, 643 412.75 M643 412.75 C439.05 410.91, 233.91 411.44, 103.19 412.75 M643 412.75 C460.03 413.21, 277.13 413.19, 103.19 412.75 M103.19 412.75 C32.62 414.7, -1.42 377.26, 0 309.56 M103.19 412.75 C35.95 412.63, -1.41 376.36, 0 309.56 M0 309.56 C0.28 259.28, 0.35 208.9, 0 103.19 M0 309.56 C-1.01 261.38, -1.76 210.85, 0 103.19 M0 103.19 C1.52 34.59, 33.72 -0.02, 103.19 0 M0 103.19 C0.68 33.41, 32.54 -0.91, 103.19 0" stroke="#000000" stroke-width="1" fill="none"></path></g><g stroke-linecap="round"><g transform="translate(2623.8689384164336 116.50946487110559) rotate(0 371.99682020573016 -2.3234244803607)"><path d="M-0.13 -0.12 C123.87 -0.9, 620.07 -4.04, 744.12 -4.8 M0.09 0.15 C124.06 -0.59, 619.98 -3.77, 743.98 -4.62" stroke="#000000" stroke-width="1" fill="none"></path></g></g><mask></mask><g transform="translate(2874.808432129451 34.707977294921875) rotate(0 97.60431671142578 35.833333333333485)"><text x="97.60431671142578" y="0" font-family="Virgil, Segoe UI Emoji" font-size="57.333333333333925px" fill="#1e1e1e" text-anchor="middle" style="white-space: pre;" direction="ltr" dominant-baseline="text-before-edge">Horario</text></g><g stroke-linecap="round" transform="translate(3763.8357640867207 606.6666666666679) rotate(0 373.09424468731277 206.3746439615884)"><path d="M103.19 0 C283.61 2.13, 463.52 2.2, 643 0 M103.19 0 C255.05 -0.49, 406.62 -0.47, 643 0 M643 0 C713.22 0.02, 745.89 33.16, 746.19 103.19 M643 0 C711.86 1.16, 745.17 35.02, 746.19 103.19 M746.19 103.19 C748.97 165.45, 745.92 226.47, 746.19 309.56 M746.19 103.19 C746.98 178.59, 747.17 252.86, 746.19 309.56 M746.19 309.56 C746.03 379.24, 713.78 410.93, 643 412.75 M746.19 309.56 C748.2 378.01, 709.87 410.68, 643 412.75 M643 412.75 C510.5 413.59, 379.53 414.11, 103.19 412.75 M643 412.75 C499.42 410.5, 355.06 410.58, 103.19 412.75 M103.19 412.75 C33.65 413.34, -0.77 378.95, 0 309.56 M103.19 412.75 C36.45 415.03, -1.68 377.9, 0 309.56 M0 309.56 C0.31 243.28, 1.47 174.52, 0 103.19 M0 309.56 C0.68 253.99, 2.12 197.01, 0 103.19 M0 103.19 C-0.43 35.43, 35.29 1.66, 103.19 0 M0 103.19 C1.32 32.4, 34.58 1.18, 103.19 0" stroke="#000000" stroke-width="1" fill="none"></path></g><g stroke-linecap="round"><g transform="translate(3770.5356050830987 713.1761315377735) rotate(0 372.16784241241953 -2.3492216180384276)"><path d="M0.14 0.09 C124.21 -0.72, 620.31 -3.98, 744.31 -4.79 M0.03 0.01 C124.1 -0.79, 620.27 -3.84, 744.26 -4.61" stroke="#000000" stroke-width="1" fill="none"></path></g></g><mask></mask><g transform="translate(4005.5086986496317 631.3746439615898) rotate(0 113.57071685791016 35.833333333333485)"><text x="113.57071685791016" y="0" font-family="Virgil, Segoe UI Emoji" font-size="57.333333333333925px" fill="#1e1e1e" text-anchor="middle" style="white-space: pre;" direction="ltr" dominant-baseline="text-before-edge">Docente</text></g><g stroke-linecap="round" transform="translate(2633.8357640867216 1410.0000000000018) rotate(0 373.09424468731265 206.37464396158884)"><path d="M103.19 0 C235.12 -0.76, 367.46 -1.46, 643 0 M103.19 0 C237.57 1.35, 372.65 1.48, 643 0 M643 0 C713.54 0.54, 746.79 34.03, 746.19 103.19 M643 0 C711.69 -2.18, 744.17 34.98, 746.19 103.19 M746.19 103.19 C745.83 158.8, 746.36 213.57, 746.19 309.56 M746.19 103.19 C747.51 157.55, 747.42 214.28, 746.19 309.56 M746.19 309.56 C745.79 376.64, 711.47 411.68, 643 412.75 M746.19 309.56 C746.16 380.02, 713.71 414.77, 643 412.75 M643 412.75 C516.44 411.12, 389.82 411.2, 103.19 412.75 M643 412.75 C440.74 413.26, 238.87 413.3, 103.19 412.75 M103.19 412.75 C34.24 411.65, -0.73 379.38, 0 309.56 M103.19 412.75 C36.23 414.18, -0.16 379.03, 0 309.56 M0 309.56 C-0.51 234.31, -1.69 156.72, 0 103.19 M0 309.56 C-0.55 256.82, -1.61 204.98, 0 103.19 M0 103.19 C0.48 36.34, 35.64 1.82, 103.19 0 M0 103.19 C1.88 33.96, 36.37 1.53, 103.19 0" stroke="#000000" stroke-width="1" fill="none"></path></g><g stroke-linecap="round"><g transform="translate(2640.5356050830997 1516.5094648711074) rotate(0 372.03183482383577 -2.409229352170769)"><path d="M-0.01 0.02 C123.98 -0.78, 619.98 -4.02, 744 -4.84 M-0.21 -0.1 C123.82 -0.88, 620.24 -3.9, 744.27 -4.68" stroke="#000000" stroke-width="1" fill="none"></path></g></g><mask></mask><g transform="translate(2910.5659877731678 1434.7079772949237) rotate(0 78.513427734375 35.83333333333394)"><text x="78.513427734375" y="0" font-family="Virgil, Segoe UI Emoji" font-size="57.333333333333925px" fill="#1e1e1e" text-anchor="middle" style="white-space: pre;" direction="ltr" dominant-baseline="text-before-edge">Curso</text></g><g stroke-linecap="round" transform="translate(2640.5030043949637 2196.6666666666697) rotate(0 373.09424468731265 206.37464396158884)"><path d="M103.19 0 C291.02 -1.41, 478.46 -0.86, 643 0 M103.19 0 C237.56 0.16, 371.45 0.03, 643 0 M643 0 C712.48 -0.45, 746.24 35.07, 746.19 103.19 M643 0 C710.39 -0.48, 744.83 33.09, 746.19 103.19 M746.19 103.19 C746.9 150.07, 747.67 193.81, 746.19 309.56 M746.19 103.19 C746.82 165.98, 748.44 230.72, 746.19 309.56 M746.19 309.56 C747.37 377.27, 711.73 411.83, 643 412.75 M746.19 309.56 C746.61 376.48, 709.78 411.66, 643 412.75 M643 412.75 C505.93 412.81, 370.13 413.54, 103.19 412.75 M643 412.75 C506.42 413.09, 370.53 412.72, 103.19 412.75 M103.19 412.75 C32.61 412.15, -0.43 377.01, 0 309.56 M103.19 412.75 C32.22 411.62, 1.42 380.25, 0 309.56 M0 309.56 C-2.43 233.1, -1.78 154.59, 0 103.19 M0 309.56 C-1.1 261.96, -0.92 213.62, 0 103.19 M0 103.19 C-0.23 33.63, 36.16 -1.91, 103.19 0 M0 103.19 C-0.51 36.4, 34.43 -0.64, 103.19 0" stroke="#000000" stroke-width="1" fill="none"></path></g><g stroke-linecap="round"><g transform="translate(2647.2028453913417 2303.1761315377717) rotate(0 372.0703294726062 -2.414492620004239)"><path d="M-0.06 0.01 C123.96 -0.8, 620.16 -4.05, 744.2 -4.84 M0.2 -0.11 C124.19 -0.91, 620.12 -3.94, 744.1 -4.68" stroke="#000000" stroke-width="1" fill="none"></path></g></g><mask></mask><g transform="translate(2886.389684075062 2221.3746439615916) rotate(0 109.35697174072266 35.83333333333394)"><text x="109.35697174072266" y="0" font-family="Virgil, Segoe UI Emoji" font-size="57.333333333333925px" fill="#1e1e1e" text-anchor="middle" style="white-space: pre;" direction="ltr" dominant-baseline="text-before-edge">Carrera</text></g><g stroke-linecap="round" transform="translate(1170.5030043949641 2220.000000000002) rotate(0 373.0942446873127 206.37464396158884)"><path d="M103.19 0 C283.27 0.83, 464.64 1.09, 643 0 M103.19 0 C241.33 2.03, 379.31 2.36, 643 0 M643 0 C710.45 1.92, 746.2 33.06, 746.19 103.19 M643 0 C710.14 0.93, 747.86 33.32, 746.19 103.19 M746.19 103.19 C745.79 147.8, 745.94 194.16, 746.19 309.56 M746.19 103.19 C744.78 158.8, 744.81 214.71, 746.19 309.56 M746.19 309.56 C746.46 376.99, 713.66 412.57, 643 412.75 M746.19 309.56 C744.5 379.04, 713.36 411.93, 643 412.75 M643 412.75 C441.71 412.55, 238.45 413.38, 103.19 412.75 M643 412.75 C495.68 413.1, 348.67 413.2, 103.19 412.75 M103.19 412.75 C32.52 412.2, -0.81 378.25, 0 309.56 M103.19 412.75 C36.42 414.4, -1.5 379.66, 0 309.56 M0 309.56 C0.23 265.19, -2.42 221.67, 0 103.19 M0 309.56 C1.75 229.9, 0.85 149.4, 0 103.19 M0 103.19 C-1.96 36.07, 36.14 1.57, 103.19 0 M0 103.19 C-0.11 34.83, 33.18 -1, 103.19 0" stroke="#000000" stroke-width="1" fill="none"></path></g><g stroke-linecap="round"><g transform="translate(1177.2028453913422 2326.509464871104) rotate(0 372.013972013665 -2.431652960834981)"><path d="M0.01 -0.03 C124.05 -0.81, 620.19 -4.02, 744.21 -4.83 M-0.18 -0.18 C123.85 -0.93, 620.09 -3.89, 744.11 -4.67" stroke="#000000" stroke-width="1" fill="none"></path></g></g><mask></mask><g transform="translate(1371.414319390004 2244.7079772949237) rotate(0 154.33233642578125 35.83333333333394)"><text x="154.33233642578125" y="0" font-family="Virgil, Segoe UI Emoji" font-size="57.333333333333925px" fill="#1e1e1e" text-anchor="middle" style="white-space: pre;" direction="ltr" dominant-baseline="text-before-edge">Estudiante</text></g><g stroke-linecap="round" transform="translate(3820.5363962724796 1379.9999999999982) rotate(0 373.09424468731277 206.37464396158884)"><path d="M103.19 0 C300.59 1.62, 496.15 2.44, 643 0 M103.19 0 C286.11 0.1, 468.78 0.19, 643 0 M643 0 C709.88 1.57, 744.91 34.67, 746.19 103.19 M643 0 C709.68 -1.34, 744.86 33.7, 746.19 103.19 M746.19 103.19 C745.39 168.43, 746.34 235.41, 746.19 309.56 M746.19 103.19 C744.35 169.48, 744.58 234.11, 746.19 309.56 M746.19 309.56 C746.51 377.53, 713.26 413.09, 643 412.75 M746.19 309.56 C744.6 378.63, 709.75 413.84, 643 412.75 M643 412.75 C492.52 411.86, 342.85 412.36, 103.19 412.75 M643 412.75 C530.92 411.99, 419.87 411.33, 103.19 412.75 M103.19 412.75 C34.38 413.17, -0.6 376.63, 0 309.56 M103.19 412.75 C32.21 410.8, -0.3 378.75, 0 309.56 M0 309.56 C-0.07 265.4, 1.44 218.9, 0 103.19 M0 309.56 C0.03 241.45, 0.87 174.52, 0 103.19 M0 103.19 C-0.88 34.54, 35.22 0.86, 103.19 0 M0 103.19 C-2 36.34, 33.77 0.05, 103.19 0" stroke="#000000" stroke-width="1" fill="none"></path></g><g stroke-linecap="round"><g transform="translate(3827.2362372688576 1486.5094648711001) rotate(0 372.1212098109552 -2.35863073580731)"><path d="M-0.03 -0.07 C124.03 -0.88, 620.25 -3.92, 744.28 -4.7 M0.23 0.23 C124.3 -0.56, 620.26 -4.14, 744.22 -4.95" stroke="#000000" stroke-width="1" fill="none"></path></g></g><mask></mask><g transform="translate(4107.2707093143945 1404.70797729492) rotate(0 68.50933837890625 35.83333333333394)"><text x="68.50933837890625" y="0" font-family="Virgil, Segoe UI Emoji" font-size="57.333333333333925px" fill="#1e1e1e" text-anchor="middle" style="white-space: pre;" direction="ltr" dominant-baseline="text-before-edge">Acta</text></g><g stroke-linecap="round" transform="translate(3917.168398790742 2113.333333333332) rotate(0 373.09424468731277 206.37464396158794)"><path d="M103.19 0 C266.33 1.06, 430.3 2.03, 643 0 M103.19 0 C271.84 -0.2, 440.49 0.07, 643 0 M643 0 C713.57 -0.73, 747.26 35.67, 746.19 103.19 M643 0 C709.58 1.89, 745.68 32.1, 746.19 103.19 M746.19 103.19 C747.09 149.34, 744.28 193.34, 746.19 309.56 M746.19 103.19 C746.75 184.61, 746.04 267.15, 746.19 309.56 M746.19 309.56 C745.89 378.41, 712.06 412.74, 643 412.75 M746.19 309.56 C745.65 376.32, 711.85 414.07, 643 412.75 M643 412.75 C430.73 411.7, 218.84 410.67, 103.19 412.75 M643 412.75 C476.66 413.5, 310.74 413.8, 103.19 412.75 M103.19 412.75 C32.77 412.47, 1.57 376.94, 0 309.56 M103.19 412.75 C35.51 410.48, -1.51 376.46, 0 309.56 M0 309.56 C0.38 248.78, -0.46 190.37, 0 103.19 M0 309.56 C1.42 238.66, 0.88 167.04, 0 103.19 M0 103.19 C1.6 36.11, 32.42 1.54, 103.19 0 M0 103.19 C0.69 36.23, 35.36 -0.75, 103.19 0" stroke="#000000" stroke-width="1" fill="none"></path></g><g stroke-linecap="round"><g transform="translate(3923.86823978712 2219.842798204434) rotate(0 372.0186403767859 -2.3011666229804177)"><path d="M-0.15 0.14 C123.9 -0.65, 620.13 -3.93, 744.19 -4.74 M0.06 0.07 C124.1 -0.68, 620.08 -3.76, 744.09 -4.53" stroke="#000000" stroke-width="1" fill="none"></path></g></g><mask></mask><g transform="translate(4074.2796039225004 2138.041310628254) rotate(0 198.1324462890625 35.83333333333394)"><text x="198.1324462890625" y="0" font-family="Virgil, Segoe UI Emoji" font-size="57.333333333333925px" fill="#1e1e1e" text-anchor="middle" style="white-space: pre;" direction="ltr" dominant-baseline="text-before-edge">Transacciones</text></g><g stroke-linecap="round"><g transform="translate(762.6569905411902 979.70797729492) rotate(0 176.59001276339785 1.7878114594868748)"><path d="M-0.01 0.15 C58.9 0.72, 294.48 2.78, 353.38 3.3 M-0.2 0.09 C58.69 0.7, 294.36 2.93, 353.28 3.48" stroke="#1e1e1e" stroke-width="4" fill="none"></path></g></g><mask></mask><g stroke-linecap="round"><g transform="translate(1852.6569905411902 936.374643961587) rotate(0 368.8884542988364 -55.45362940989435)"><path d="M0.73 -0.11 C123.27 -18.77, 613.3 -92.57, 735.85 -110.8 M-0.35 -1.22 C122.52 -19.22, 615.59 -91.3, 738.13 -109.68" stroke="#1e1e1e" stroke-width="4" fill="none"></path></g></g><mask></mask><g stroke-linecap="round"><g transform="translate(2972.6569905411907 416.37464396158794) rotate(0 -1.6071871269666644 91.63981367541737)"><path d="M-0.14 -0.08 C-0.67 30.48, -2.68 152.81, -3.22 183.36 M0.07 0.21 C-0.46 30.72, -2.69 152.58, -3.29 183.11" stroke="#1e1e1e" stroke-width="4" fill="none"></path></g></g><mask></mask><g stroke-linecap="round"><g transform="translate(3355.9903238745237 786.3746439615879) rotate(0 201.60214173473935 -3.3273402912182064)"><path d="M0.05 0.13 C67.25 -0.99, 336.1 -5.65, 403.32 -6.78 M-0.12 0.05 C67.05 -1.05, 335.95 -5.55, 403.19 -6.64" stroke="#1e1e1e" stroke-width="4" fill="none"></path></g></g><mask></mask><g stroke-linecap="round"><g transform="translate(2979.323657207857 1399.70797729492) rotate(0 -1.756236041128659 -181.70964636509598)"><path d="M-0.15 -0.04 C-0.7 -60.59, -2.87 -302.81, -3.41 -363.38 M0.05 -0.2 C-0.51 -60.72, -2.98 -302.68, -3.57 -363.2" stroke="#1e1e1e" stroke-width="4" fill="none"></path></g></g><mask></mask><g stroke-linecap="round"><g transform="translate(3832.65699054119 1389.7079772949219) rotate(0 -247.34490083143726 -181.94803431276887)"><path d="M-0.08 0.77 C-82.47 -59.77, -411.49 -302.24, -493.55 -362.82 M-1.59 0.14 C-84.22 -60.82, -412.75 -303.86, -494.61 -364.67" stroke="#1e1e1e" stroke-width="4" fill="none"></path></g></g><mask></mask><g stroke-linecap="round"><g transform="translate(1519.3236572078574 1186.374643961588) rotate(0 4.9911715312405605 513.3236902768444)"><path d="M0.15 0.01 C1.79 171.12, 8.34 855.49, 9.96 1026.6 M0.02 -0.14 C1.63 171, 8.11 855.63, 9.8 1026.78" stroke="#1e1e1e" stroke-width="4" fill="none"></path></g></g><mask></mask><g stroke-linecap="round"><g transform="translate(1922.6569905411907 2396.374643961586) rotate(0 348.4176928237315 -4.969764159574879)"><path d="M-0.04 -0.09 C116.04 -1.74, 580.41 -8.29, 696.55 -9.92 M0.25 0.24 C116.37 -1.47, 580.8 -8.45, 696.88 -10.18" stroke="#1e1e1e" stroke-width="4" fill="none"></path></g></g><mask></mask><g stroke-linecap="round"><g transform="translate(3005.9903238745237 2186.374643961586) rotate(0 -6.6443764591773515 -176.6338472339903)"><path d="M0.14 0.1 C-2.09 -58.82, -11.07 -294.48, -13.3 -353.37 M-0.01 0 C-2.26 -58.82, -11.2 -294.23, -13.43 -353.16" stroke="#1e1e1e" stroke-width="4" fill="none"></path></g></g><mask></mask></svg>